<svg fill="none" height="16" viewBox="0 0 23 23" width="16" xmlns="http://www.w3.org/2000/svg"><g fill="rgb(255,255,255)"><path d="m16.971 1.75214c1.0074-.00449 1.6995-.00644 2.2267.05114.1714.01871.3146.04282.4362.07197l-10.62847 10.62845c-.2929.2929-.2929.7678 0 1.0607.29289.2929.76776.2929 1.06067 0l10.6285-10.62849c.0291.1216.0532.2648.0719.43615.0576.52723.0556 1.21938.0512 2.22675l-.0111 2.48214c-.0019.41421.3324.75149.7466.75334.4142.00184.7515-.33244.7534-.74665l.0112-2.52684c.0043-.95172.0078-1.72955-.0601-2.35159-.0707-.64682-.2263-1.21949-.6076-1.71227-.0826-.10668-.1716-.20796-.2667-.3033-.0974-.09777-.2012-.18927-.3105-.27393-.4928-.381362-1.0655-.536932-1.7123-.607569-.622-.067929-1.3999-.064444-2.3516-.060181l-2.5268.011274c-.4143.001848-.7485.339129-.7467.753336.0019.41421.3391.7485.7533.74665z"/><path d="m12.009 3.44206c-.6056-.00726-1.2727-.00726-2.0058-.00726h-.04845c-1.83654-.00001-3.27614-.00002-4.41827.12372-1.16554.12628-2.10992.3886-2.91624.97443-.48815.35466-.91743.78394-1.27209 1.27208-.585826.80632-.848144 1.7507-.974422 2.91624-.123743 1.14214-.123736 2.58173-.123728 4.41823v.0905c-.000008 1.8366-.000015 3.2762.123728 4.4183.126278 1.1656.388596 2.1099.974422 2.9163.35466.4881.78394.9174 1.27209 1.272.80632.5859 1.7507.8482 2.91624.9745 1.14211.1237 2.58169.1237 4.41817.1237h.09065c1.8365 0 3.2761 0 4.4182-.1237 1.1656-.1263 2.1099-.3886 2.9163-.9745.4881-.3546.9174-.7839 1.272-1.272.5859-.8064.8482-1.7507.9745-2.9163.1237-1.1421.1237-2.5817.1237-4.4182v-.0488c0-.7329 0-1.3999-.0073-2.0055-.0049-.4142-.3447-.7459-.7589-.741-.4142.005-.7459.3448-.741.759.0072.5957.0072 1.2543.0072 1.991 0 1.8916-.001 3.25-.115 4.3019-.1125 1.038-.3276 1.6882-.6967 2.1962-.2621.3608-.5794.6781-.9402.9402-.508.3691-1.1582.5842-2.1961.6967-1.052.114-2.4104.115-4.302.115-1.89157 0-3.25001-.001-4.30196-.115-1.03791-.1125-1.68812-.3276-2.19613-.6967-.3608-.2621-.67809-.5794-.94023-.9402-.36909-.508-.58423-1.1582-.69668-2.1962-.11397-1.0519-.115-2.4103-.115-4.3019s.00103-3.25001.115-4.30196c.11245-1.03791.32759-1.68813.69668-2.19613.26214-.3608.57943-.6781.94023-.94024.50801-.36908 1.15822-.58422 2.19613-.69667 1.05195-.11398 2.41039-.115 4.30196-.115.7367 0 1.3952.00001 1.991.00715.4142.00496.754-.32678.7589-.74096.005-.41418-.3267-.75397-.7409-.75893z"/></g></svg>