<!-- клас icon треба додавати до кожного svg де використовується спрайт -->
<!-- клас icon описаний в index.css-->

<!-- зразок використання іконки із svg sprites

        <svg className="icon">
          <use href="/sprite.svg#clock_icon"></use>
        </svg>

        -->


<svg xmlns="http://www.w3.org/2000/svg">

  <defs>


    <!-- logo -->
    <symbol viewBox="0 0 448 512" id="logo">
      <path d="M147.401 313.003C39.8487 313.003 42.2988 313.003 87.1135 209.526V275.47" stroke="#000000" stroke-opacity="0.9" stroke-width="16" stroke-linecap="round" stroke-linejoin="round"/>
      <path d="M324.557 227.946C304.429 227.192 195.421 226.265 187.533 234.155C176.154 245.537 148.004 324.113 159.274 339.143C235.863 340.602 293.78 342.161 305.108 337.629C310.954 335.29 315.624 328.565 318.228 322.487C320.29 317.673 341.944 244.299 341.944 242.231" stroke="#000000" stroke-opacity="0.9" stroke-width="16" stroke-linecap="round" stroke-linejoin="round"/>
      <path d="M155.578 338.466C139.386 332.347 122.408 326.968 106.819 318.962" stroke="#000000" stroke-opacity="0.9" stroke-width="16" stroke-linecap="round" stroke-linejoin="round"/>
      <path d="M109.285 124.88C83.9951 207.964 197.142 243.153 227.106 159.615C243.349 114.329 188.699 47.6707 132.681 97.7025" stroke="#000000" stroke-opacity="0.9" stroke-width="16" stroke-linecap="round" stroke-linejoin="round"/>
      <path d="M187.702 157.793C188.738 154.993 189.477 153.351 190.056 150.635" stroke="#000000" stroke-opacity="0.9" stroke-width="16" stroke-linecap="round" stroke-linejoin="round"/>
      <path d="M164.323 157.307C165.41 155.075 165.59 153.074 166.015 150.55" stroke="#000000" stroke-opacity="0.9" stroke-width="16" stroke-linecap="round" stroke-linejoin="round"/>
    </symbol>
    <!-- social -->
    <symbol viewBox="448 512" id="social">
      <path d="M12.9886 20.9463L12.88 19.9522L12.35 20.0101L12.1027 20.4825L12.9886 20.9463ZM6.45572 19.09L7.06966 19.8793L8.08109 19.0927L7.07226 18.3027L6.45572 19.09ZM4.23006 20.8211L3.61612 20.0317L3.61611 20.0317L4.23006 20.8211ZM20 12C20 16.1206 16.8838 19.5148 12.88 19.9522L13.0973 21.9404C18.1043 21.3933 22 17.1523 22 12H20ZM12 4C16.4183 4 20 7.58172 20 12H22C22 6.47715 17.5228 2 12 2V4ZM4 12C4 7.58172 7.58172 4 12 4V2C6.47715 2 2 6.47715 2 12H4ZM7.07226 18.3027C5.20015 16.8366 4 14.5587 4 12H2C2 15.1996 3.50381 18.0485 5.83917 19.8773L7.07226 18.3027ZM4.844 21.6104L7.06966 19.8793L5.84178 18.3006L3.61612 20.0317L4.844 21.6104ZM4.29145 20C5.1484 20 5.52041 21.0843 4.84401 21.6104L3.61611 20.0317C2.78939 20.6747 3.24408 22 4.29145 22V20ZM12 20H4.29145V22H12V20ZM12.9 20H12V22H12.9V20ZM12.1027 20.4825C12.2517 20.1979 12.5519 20 12.9 20V22C13.3252 22 13.6921 21.7586 13.8746 21.4102L12.1027 20.4825Z" fill="#000000"/>
      <path d="M9 12C9 12.5523 8.55228 13 8 13C7.44772 13 7 12.5523 7 12C7 11.4477 7.44772 11 8 11C8.55228 11 9 11.4477 9 12Z" fill="#000000"/>
      <path d="M13 12C13 12.5523 12.5523 13 12 13C11.4477 13 11 12.5523 11 12C11 11.4477 11.4477 11 12 11C12.5523 11 13 11.4477 13 12Z" fill="#000000"/>
      <path d="M17 12C17 12.5523 16.5523 13 16 13C15.4477 13 15 12.5523 15 12C15 11.4477 15.4477 11 16 11C16.5523 11 17 11.4477 17 12Z" fill="#000000"/>
    </symbol>
    <!-- social_icon -->
    <symbol viewBox="100% 100% 150% 150%" id="socialIcon">
      <path d="M19 21V15M19 15L17 17M19 15L21 17M21 11V8.2C21 7.0799 21 6.51984 20.782 6.09202C20.5903 5.71569 20.2843 5.40973 19.908 5.21799C19.4802 5 18.9201 5 17.8 5H6.2C5.0799 5 4.51984 5 4.09202 5.21799C3.71569 5.40973 3.40973 5.71569 3.21799 6.09202C3 6.51984 3 7.0799 3 8.2V15.8C3 16.9201 3 17.4802 3.21799 17.908C3.40973 18.2843 3.71569 18.5903 4.09202 18.782C4.51984 19 5.0799 19 6.2 19H13M20.6067 8.26229L15.5499 11.6335C14.2669 12.4888 13.6254 12.9165 12.932 13.0827C12.3192 13.2295 11.6804 13.2295 11.0677 13.0827C10.3743 12.9165 9.73279 12.4888 8.44975 11.6335L3.14746 8.09863" stroke="#000000" stroke-width="1" stroke-linecap="round" stroke-linejoin="round"/>
    </symbol>
  </defs>
</svg>
